<svg width="500" height="500" viewBox="0 0 500 500" fill="none" xmlns="http://www.w3.org/2000/svg">
<rect width="500" height="500" fill="white"/>
<g clip-path="url(#clip0_1_2)">
<mask id="mask0_1_2" style="mask-type:luminance" maskUnits="userSpaceOnUse" x="10" y="10" width="480" height="480">
<path d="M10 9.99999H490V490H10V9.99999Z" fill="white"/>
</mask>
<g mask="url(#mask0_1_2)">
<path fill-rule="evenodd" clip-rule="evenodd" d="M293.06 226.447C290.269 215.578 289.988 205.035 290.631 194.501C291.479 180.534 294.588 167.107 301.799 154.898C304.619 150.122 308.041 145.85 312.655 142.65C314.7 141.229 316.952 140.249 319.417 139.914C325.653 139.067 330.405 143.298 330.807 149.967C330.935 152.101 330.704 154.195 329.997 156.665C335.303 151.797 340.991 148.221 347.088 145.318C357.66 140.285 368.529 136.071 380.292 134.877C385.365 134.363 390.509 134.149 395.377 136.289C396.101 136.607 396.811 136.978 397.481 137.397C402.396 140.462 403.272 145.831 399.619 150.329C398.408 151.819 396.935 153.039 395.193 154.469C403.296 155.354 410.803 157.343 418.087 160.147C429.927 164.707 440.965 170.649 450.333 179.362C452.917 181.762 455.239 184.405 456.909 187.543C460.763 194.789 458.24 200.265 450.216 202.129C449.529 202.287 448.843 202.439 447.927 202.646C450.523 204.943 452.995 207.131 455.027 209.731C460.739 217.049 465.612 224.807 467.564 234.065C468.381 237.949 468.409 241.817 467.429 245.69C465.919 251.675 460.893 255.858 454.727 256.234C451.588 256.426 448.532 256.045 445.367 255.207C446.361 256.382 447.383 257.533 448.341 258.735C456.113 268.497 462.087 279.173 464.763 291.478C465.617 295.395 465.671 299.35 464.827 303.317C462.62 313.699 448.784 321.238 438.016 310.525C435.805 308.326 433.925 305.874 431.972 303.289C432.036 304.221 432.101 305.151 432.161 306.082C432.613 313.138 432.551 320.137 429.955 326.873C427.477 333.299 421.433 337.447 414.499 337.862C401.787 338.621 395.437 330.358 392.928 319.605C392.699 318.615 392.549 317.607 392.299 316.258C391.433 318.403 390.663 320.215 389.969 322.058C389.027 324.557 387.553 326.643 385.257 328.033C384.409 328.547 384.305 329.05 384.492 329.954C385.588 335.21 386.557 340.513 386.897 345.857C387.611 357.093 384.039 366.679 375.259 374.103C368.421 379.886 360.639 384.117 352.691 388.086C341.083 393.886 329.063 398.559 316.252 400.902C307.7 402.466 299.128 402.83 290.664 400.225C287.803 399.345 285.883 397.593 285.161 394.531C284.3 390.885 283.088 387.31 283.411 382.937C281.655 385.251 280.481 387.319 278.748 388.917C272.629 394.558 266.015 399.043 257.155 398.834C253.979 398.758 250.797 398.906 247.611 398.838C244.909 398.781 242.556 397.873 240.245 396.714C238.416 395.794 237.64 394.147 237.605 392.146C237.552 388.961 238.277 385.85 238.605 382.51C234.831 383.218 231.128 383.733 227.395 384.034C220.631 384.579 213.872 384.475 207.116 383.999C205.724 383.899 204.952 384.134 205.187 385.737C205.261 386.249 205.061 386.795 205.095 387.322C205.499 393.774 202.119 397.461 196.452 399.863C190.391 402.433 184.168 403.15 177.764 402.197C174.167 401.661 171.377 399.455 169.183 396.597C158.264 382.365 153.633 365.779 151.137 348.387C150.647 344.971 150.2 341.555 150.039 338.113C149.765 332.339 151.227 326.798 152.599 321.274C155.873 308.09 159.719 295.067 164.151 282.225C164.373 281.581 164.157 281.246 163.855 280.809C159.701 274.831 155.567 268.838 151.392 262.875C150.683 261.862 150.893 261.053 151.58 260.182C153.059 258.313 154.465 256.383 155.997 254.558C156.717 253.701 156.592 253.15 155.861 252.422C153.744 250.315 151.605 248.255 149.116 246.571C146.867 245.05 146.739 244.149 148.507 242.105C153.636 236.174 159.433 230.985 165.523 226.031C168.733 223.419 171.424 223.122 174.727 225.13C175.004 225.299 175.343 225.367 175.804 225.539C175.381 222.589 174.451 219.879 173.495 217.193C168.865 204.177 162.519 192.269 152.048 182.85C139.139 171.237 124.221 164.055 107.111 160.989C96.2065 159.034 85.2532 157.619 74.2772 156.246C71.0399 155.841 67.9785 154.685 65.2025 152.906C60.2505 149.731 60.1932 144.681 64.8652 141.133C74.9865 133.449 86.7412 129.743 98.8385 126.75C111.033 123.733 123.373 121.725 135.925 121.125C137.985 121.026 139.299 120.358 140.464 118.455C143.351 113.742 147.303 110.019 152.456 107.781C161.279 103.947 168.571 108.829 168.285 118.458C168.232 120.277 168.537 120.895 170.476 121.009C180.023 121.566 189.476 122.813 198.676 125.541C201.216 126.293 203.736 127.131 206.205 128.086C207.437 128.562 207.871 128.478 207.744 127.061C207.539 124.751 207.416 122.434 207.273 120.119C206.956 114.953 208.937 111.935 212.851 111.61C217.016 111.261 220.341 114.385 220.959 119.177C221.393 122.559 220.907 125.777 219.411 128.847C218.889 129.919 218.476 131.045 217.923 132.098C217.509 132.883 217.729 133.243 218.469 133.634C221.513 135.242 224.551 136.874 227.309 138.951C228.191 139.614 228.412 138.993 228.777 138.437C233.869 130.673 241.223 126.329 250.164 124.535C252.691 124.03 255.323 123.967 257.813 124.987C259.959 125.866 261.564 127.281 261.909 129.701C262.248 132.074 261.029 133.781 259.256 135.127C254.267 138.915 248.384 140.527 242.425 141.919C240.345 142.406 238.36 143.107 236.436 144.023C235.533 144.454 235.151 144.73 236.199 145.594C249.703 156.711 258.833 170.862 264.824 187.158C265.275 188.379 265.759 189.123 267.221 188.641C267.763 188.461 268.407 188.554 269.001 188.567C272.227 188.642 273.424 189.522 274.191 192.675C275.8 199.302 277.96 205.803 278.831 212.601C279.095 214.662 280.36 216.142 281.828 217.375C285.371 220.35 289.021 223.199 293.06 226.447Z" fill="#2B190F"/>
<path fill-rule="evenodd" clip-rule="evenodd" d="M383.487 325.221C381.299 315.129 378.39 305.58 374.818 296.213C370.85 285.813 364.215 277.661 355.394 270.889C340.35 259.339 324.516 248.951 308.863 238.288C305.526 236.015 302.32 233.552 299.02 231.22C297.66 230.259 296.895 229.041 296.455 227.411C295.031 222.139 294.154 216.772 293.892 211.349C293.219 197.432 294.046 183.648 298.548 170.309C301.415 161.82 305.222 153.857 311.874 147.576C313.827 145.731 316.03 144.308 318.624 143.525C322.794 142.265 326.183 144.243 327.186 148.484C327.672 150.54 327.663 152.596 327.07 154.581C325.907 158.463 324.292 162.164 322.039 165.551C321.456 166.428 320.81 167.272 321.759 168.181C322.751 169.131 323.686 168.633 324.524 167.8C324.991 167.335 325.63 166.995 325.967 166.459C331.666 157.416 340.384 152.191 349.702 147.809C358.654 143.601 367.875 140.095 377.72 138.572C382.584 137.819 387.463 137.433 392.315 138.744C393.804 139.148 395.179 139.793 396.394 140.74C398.723 142.552 399.184 144.936 397.543 147.377C395.644 150.204 393.028 152.191 389.842 153.405C387.483 154.301 385.031 154.864 382.59 155.468C381.296 155.788 380.66 156.677 380.978 157.993C381.26 159.165 382.279 159.321 383.214 159.016C390.398 156.672 397.535 157.712 404.58 159.476C420.218 163.393 434.486 170.147 446.826 180.663C449.915 183.297 452.659 186.276 454.418 190.016C456.438 194.304 455.171 197.117 450.642 198.604C448.464 199.319 446.19 199.224 443.963 199.524C443.043 199.647 442.094 199.525 441.703 200.692C441.292 201.911 442.263 202.44 442.923 202.935C446.167 205.367 449.336 207.877 451.862 211.073C457.532 218.248 462.358 225.879 464.324 234.988C464.948 237.872 464.987 240.784 464.46 243.683C463.298 250.109 457.892 253.881 451.104 252.884C447.111 252.297 443.494 250.644 440.244 248.253C439.383 247.617 438.594 246.963 437.64 247.86C436.608 248.832 436.955 249.9 437.74 250.865C440.042 253.691 442.367 256.497 444.671 259.323C452.683 269.151 458.756 279.979 461.538 292.464C462.234 295.588 462.314 298.763 461.707 301.944C460.082 310.483 449.692 316.22 441.607 309.203C436.72 304.963 433.706 299.472 431.192 293.653C430.735 292.591 430.752 290.923 429.095 291.399C427.64 291.816 427.024 293.304 427.4 294.775C428.271 298.195 428.691 301.676 428.93 305.173C429.348 311.344 429.394 317.496 427.562 323.507C425.488 330.313 421.094 333.995 414.332 334.551C407.502 335.111 401.956 332.004 398.792 326.015C396.186 321.08 395.563 315.691 394.955 310.295C394.696 307.993 394.38 305.685 394.534 303.355C394.606 302.281 394.252 301.504 393.026 301.489C391.814 301.476 391.394 302.351 391.346 303.319C391.22 305.839 391.026 308.352 390.47 310.809C389.548 314.901 388 318.771 386.13 322.513C385.586 323.603 384.752 324.408 383.487 325.221Z" fill="#C5BCB4"/>
<path fill-rule="evenodd" clip-rule="evenodd" d="M205.267 367.348C203.239 366.908 202.542 367.414 202.599 369.702C202.715 374.352 202.144 378.974 202.164 383.614C202.168 384.748 201.939 385.286 200.619 385.19C190.144 384.432 180.512 386.866 171.911 392.997C170.739 393.833 170.538 392.734 170.168 392.228C166.408 387.06 163.526 381.412 161.238 375.462C157.511 365.778 155.68 355.652 153.98 345.453C152.366 335.773 154.583 326.652 156.976 317.486C159.735 306.928 162.815 296.46 165.975 286.016C166.088 285.642 166.232 285.276 166.407 284.782C167.794 286.006 167.991 287.868 169.268 289.037C170.27 289.954 171.143 290.288 172.444 289.64C183.142 284.308 194.418 280.578 205.992 277.721C217.608 274.853 229.252 272.109 241.02 269.932C244.592 269.269 248.204 268.82 251.787 268.204C254.38 267.757 255.023 267.037 254.718 264.486C253.723 256.146 252.786 247.782 249.25 240.004C249.2 239.894 249.23 239.746 249.22 239.582C253.083 238.694 256.935 239.232 260.8 239.604C266.923 240.19 273.07 240.536 279.123 241.754C280.848 242.102 281.78 241.052 281.879 239.292C282 237.146 280.838 235.194 281.058 233.053C282.071 232.934 282.415 233.733 282.827 234.388C288.851 243.972 296.843 251.808 305.059 259.452C314.184 267.942 323.347 276.405 331.892 285.485C341.208 295.378 348.528 306.641 353.668 319.237C357.322 328.186 359.651 337.486 360.407 347.165C360.791 352.05 361.216 356.952 361.083 361.836C360.967 366.138 360.786 370.44 360.739 374.746C360.731 375.548 360.554 376.329 360.223 377.062C359.94 377.69 359.543 377.856 359.038 377.261C356.162 373.11 353.031 369.218 348.863 366.242C342.418 361.638 335.226 359.038 327.416 358.08C315.779 356.652 304.62 358.666 293.784 362.893C293.42 363.034 293.051 363.158 292.574 363.332C292.336 362.354 292.878 361.634 293.128 360.884C295.751 353.05 298.892 345.396 301.224 337.464C301.616 336.13 302.638 334.554 300.879 333.32C299.598 332.905 298.739 333.446 298.042 334.497C297.231 335.714 296.694 337.076 295.959 338.332C290.632 347.462 283.88 355.52 276.936 363.414C272.748 368.176 268.604 372.985 264.114 377.477C263.456 378.133 262.806 378.79 261.919 379.138C255.044 379.333 248.531 381.222 241.882 383.54C242.21 379.606 243.179 375.976 243.79 372.288C244.135 370.206 244.455 368.12 244.782 366.034C245.01 364.572 244.526 363.585 242.959 363.329C235.45 366.398 227.752 368.806 219.694 369.95C216.72 370.372 213.736 370.302 210.767 370.076C208.628 369.914 206.606 369.25 205.267 367.348Z" fill="white"/>
<path fill-rule="evenodd" clip-rule="evenodd" d="M168.245 133.629C167.747 129.937 166.379 126.916 163.895 124.148C167.043 123.73 169.912 124.252 172.747 124.481C183.333 125.34 193.771 127.013 203.793 130.753C212.027 133.826 219.86 137.656 226.968 142.852C228.357 143.869 228.983 143.634 229.792 142.3C234.152 135.117 240.393 130.406 248.535 128.262C250.984 127.617 253.453 127.214 255.976 127.934C257.195 128.28 258.301 128.86 258.545 130.142C258.771 131.33 257.765 132.016 256.903 132.65C252.808 135.661 248.052 137.08 243.217 138.265C240.512 138.928 237.811 139.576 235.305 140.832C234.539 141.216 233.757 141.598 233.056 142.09C230.137 144.14 230.124 145.036 232.821 147.174C244.605 156.513 253.077 168.372 259.264 181.966C260.553 184.802 261.765 187.666 262.731 190.63C263.307 192.404 262.931 193.002 261.073 192.857C257.636 192.589 254.235 192.52 250.769 192.717C243.729 193.116 237.511 195.68 231.521 199.048C223.189 203.734 215.828 209.922 207.595 214.732C200.991 218.59 194.337 222.532 186.653 224.046C186.008 224.173 185.347 224.25 184.689 224.28C179.219 224.512 179.201 224.51 177.696 219.324C170.615 194.948 155.636 177.209 133.051 165.678C125.08 161.608 116.539 159.662 107.932 157.817C97.5628 155.594 87.0748 154.173 76.4988 153.361C74.6628 153.22 72.8348 152.804 70.8148 151.962C73.7895 150.74 76.6148 149.524 77.9708 146.576C79.1441 144.029 77.9615 141.237 74.7281 138.84C77.7108 137.145 80.7668 135.824 83.8895 134.724C96.7988 130.173 110.083 127.213 123.663 125.552C134.076 124.277 144.533 123.941 155.012 123.785C157.752 123.744 159.725 124.801 161.46 126.544C164.313 129.409 165.303 132.945 164.733 136.941C164.641 137.585 164.232 138 163.913 138.497C158.545 146.898 157.204 155.778 161.56 164.929C166.956 176.262 179.708 179.668 190.275 172.897C200.487 166.353 204.821 151.512 199.739 140.497C194.129 128.344 180.643 124.806 169.628 132.601C169.253 132.866 168.889 133.15 168.245 133.629Z" fill="#C5BCB4"/>
<path fill-rule="evenodd" clip-rule="evenodd" d="M359.038 377.26C359.328 377.27 359.703 377.576 359.844 377.06C359.951 376.679 360.083 376.284 360.076 375.899C359.944 369.426 361.098 362.975 360.352 356.49C360 353.404 360.196 350.29 359.926 347.182C359.179 338.631 357.279 330.374 354.296 322.363C350.556 312.315 345.402 303.035 338.852 294.527C333.99 288.211 328.364 282.612 322.766 276.971C313.942 268.082 304.263 260.084 295.623 251.01C290.656 245.79 285.719 240.528 282.143 234.182C281.896 233.74 281.424 233.427 281.058 233.052C280.676 228.914 280.295 224.775 279.882 220.267C283.26 222.942 286.455 225.379 289.551 227.938C301.006 237.399 313.402 245.53 325.788 253.675C336.634 260.811 346.966 268.647 357.172 276.647C365.115 282.872 369.576 291.427 372.984 300.711C377.978 314.319 381.194 328.343 383.239 342.654C384.57 351.958 383.04 360.614 376.68 367.94C372.367 372.911 366.883 376.387 361.299 379.723C360.67 380.098 360.392 380.007 360.115 379.36C359.804 378.639 359.4 377.959 359.038 377.26Z" fill="#B8C8E7"/>
<path fill-rule="evenodd" clip-rule="evenodd" d="M278.346 237.169C278.741 238.557 277.874 238.159 277.146 238.047C269.942 236.937 262.668 236.521 255.418 235.865C252.717 235.621 250.005 236.171 247.277 235.883C245.44 235.689 244.221 237.409 245.128 239.051C248.761 245.637 249.717 252.935 250.989 260.155C251.23 261.523 251.274 262.92 251.465 264.297C251.672 265.797 250.393 265.463 249.741 265.573C246.092 266.195 242.396 266.557 238.761 267.245C218.15 271.147 197.63 275.416 178.074 283.308C177.829 283.408 177.589 283.524 177.338 283.608C176.693 283.824 175.99 283.984 175.56 283.307C175.136 282.641 175.772 282.175 176.137 281.773C180.816 276.613 185.817 271.825 191.389 267.597C202.464 259.196 214.034 251.483 225.146 243.131C238.717 232.928 250.977 221.387 261.641 208.179C264.173 205.044 266.402 201.663 268.716 198.356C269.29 197.536 269.894 196.896 270.93 196.991C272.078 197.095 272.346 198.076 272.6 198.967C275.017 207.461 276.264 216.153 277.049 224.935C277.414 229.017 277.289 233.156 278.346 237.169Z" fill="white"/>
<path fill-rule="evenodd" clip-rule="evenodd" d="M304.358 398.685C299.969 398.789 295.915 398.346 291.942 397.13C289.917 396.51 288.838 395.293 288.179 393.236C285.966 386.338 286.391 379.709 288.639 372.817C289.898 368.953 291.887 366.982 295.537 365.684C304.362 362.542 313.341 360.409 322.742 360.952C336.626 361.754 348.329 366.808 356.105 378.993C357.81 381.666 357.777 381.693 354.911 383.182C342.347 389.713 329.339 395.03 315.353 397.674C311.637 398.377 307.894 398.834 304.358 398.685Z" fill="#C5BCB4"/>
<path fill-rule="evenodd" clip-rule="evenodd" d="M253.911 204.434C254.642 204.434 255.373 204.462 256.101 204.429C257.134 204.381 257.647 205.034 258.083 205.818C258.543 206.645 258.27 207.294 257.682 207.964C248.719 218.198 239.202 227.838 228.499 236.304C216.346 245.918 203.311 254.32 191.03 263.752C188.247 265.888 184.841 265.868 181.669 266.67C179.875 267.125 178.067 267.529 176.291 268.04C175.199 268.354 174.299 268.385 173.407 267.49C172.534 266.616 172.693 265.728 173.009 264.752C174.761 259.344 176.289 253.874 177.293 248.277C177.735 245.81 178.091 243.32 178.311 240.824C178.613 237.4 180.554 235.43 183.955 235.066C195.529 233.828 206.215 230.181 215.987 223.71C221.846 219.83 227.333 215.462 233.137 211.517C239.034 207.51 247.633 204.434 253.911 204.434Z" fill="#0F4A7E"/>
<path fill-rule="evenodd" clip-rule="evenodd" d="M162.342 153.967C162.732 145.84 165.718 139.035 172.792 134.541C181.788 128.824 192.494 132.224 196.758 142.016C200.858 151.427 197.65 163.376 189.39 169.472C178.953 177.173 165.462 171.719 162.822 158.729C162.505 157.168 162.274 155.596 162.342 153.967Z" fill="#ACDAF5"/>
<path fill-rule="evenodd" clip-rule="evenodd" d="M175.977 232.86C175.216 243.109 173.464 252.68 170.219 261.979C168.611 266.585 167.493 271.336 167.891 276.303C167.948 277.027 167.909 277.76 167.908 278.489C167.907 278.883 167.977 279.356 167.557 279.552C166.933 279.844 166.803 279.215 166.552 278.88C162.947 274.06 159.576 269.077 156.135 264.141C154.773 262.188 154.867 260.876 156.453 259.251C157.693 257.981 158.729 256.5 159.764 255.047C160.677 253.764 160.644 252.539 159.436 251.321C157.155 249.013 154.943 246.628 152.304 244.724C151.403 244.072 151.457 243.629 152.107 242.913C156.828 237.709 161.748 232.713 167.467 228.585C170.537 226.371 173.049 226.889 175.34 229.923C176.159 231.007 176.073 232.131 175.977 232.86Z" fill="white"/>
<path fill-rule="evenodd" clip-rule="evenodd" d="M181.652 231.962C180.546 232.182 179.504 231.653 179.454 229.781C179.412 228.173 180.409 227.113 182.208 227.145C188.51 227.256 194.028 224.796 199.584 222.208C210.101 217.309 219.146 210.116 228.818 203.896C234.333 200.352 240.052 197.122 246.617 195.889C252.056 194.868 257.528 194.733 262.994 195.716C264.513 195.99 265.202 197.46 264.561 198.91C263.53 201.254 261.528 202.224 258.933 201.741C252.036 200.457 245.534 201.974 239.189 204.586C233.121 207.084 227.942 210.988 222.762 214.898C213.349 222.002 203.437 228.121 191.644 230.48C188.529 231.104 185.405 231.66 181.652 231.962Z" fill="white"/>
<path fill-rule="evenodd" clip-rule="evenodd" d="M261.919 379.138C265.495 375.25 269.041 371.334 272.65 367.479C280.377 359.223 287.47 350.461 293.791 341.091C295.114 339.126 296.102 336.937 297.234 334.846C298.045 333.355 299.078 332.427 300.881 333.321C299.606 333.242 299.151 333.869 298.742 335.093C294.133 348.83 289.561 362.583 283.375 375.725C282.243 378.127 280.905 380.417 279.426 382.621C279.202 382.953 279.17 383.717 278.319 383.243C273.223 380.419 267.634 379.51 261.919 379.138Z" fill="#B8C8E7"/>
<path fill-rule="evenodd" clip-rule="evenodd" d="M205.267 367.348C209.454 370.497 214.334 369.942 218.976 369.461C226.667 368.661 234.003 366.23 241.211 363.476C241.791 363.253 242.362 363.206 242.959 363.329C241.87 363.934 241.772 365.017 241.687 366.074C241.368 370.045 240.234 373.87 239.612 377.786C239.443 378.846 238.766 378.973 237.966 379.15C231.211 380.653 224.366 381.244 217.456 381.176C214.075 381.144 210.695 381.073 207.315 381.052C205.888 381.042 205.227 380.586 205.367 378.968C205.655 375.605 205.227 372.209 205.692 368.848C205.774 368.268 205.444 367.837 205.267 367.348Z" fill="#B8C8E7"/>
<path fill-rule="evenodd" clip-rule="evenodd" d="M277.017 386.105C271.481 390.881 266.1 395.199 258.65 395.459C255.142 395.579 251.625 395.467 248.113 395.509C246.348 395.529 244.765 394.981 243.136 394.363C241.128 393.603 240.794 392.265 240.862 390.316C240.956 387.679 242.126 386.467 244.654 385.757C250.396 384.139 256.065 382.259 262.122 382.431C267.202 382.576 272.016 383.871 277.017 386.105Z" fill="#C5BCB4"/>
<path fill-rule="evenodd" clip-rule="evenodd" d="M173.372 395.987C178.406 392.592 183.584 389.767 189.582 388.804C193.177 388.227 196.793 387.943 200.45 388.226C201.67 388.319 201.857 388.779 201.704 389.832C201.357 392.208 200.244 393.918 198.116 395.191C192.11 398.787 185.614 399.656 178.81 399.022C176.673 398.822 175.03 397.572 173.372 395.987Z" fill="#C5BCB4"/>
<path fill-rule="evenodd" clip-rule="evenodd" d="M142.693 120.833C146.457 115.638 150.279 111.419 156.276 110.062C160.971 108.999 164.091 111.31 164.813 116.119C164.912 116.773 165.027 117.43 165.04 118.086C165.085 120.687 164.987 120.817 162.469 120.665C156.061 120.281 149.657 120.562 142.693 120.833Z" fill="#ACDAF5"/>
<path fill-rule="evenodd" clip-rule="evenodd" d="M217.79 121.633C217.938 125.128 215.989 127.928 214.74 130.952C214.654 131.159 214.422 131.413 214.225 131.447C213.066 131.64 210.936 129.603 210.87 128.407C210.718 125.639 210.501 122.876 210.289 120.111C210.048 116.957 210.914 115.232 212.948 114.88C215.081 114.512 216.896 116.136 217.54 119.077C217.72 119.908 217.71 120.78 217.79 121.633Z" fill="#C5BCB4"/>
<path fill-rule="evenodd" clip-rule="evenodd" d="M171.24 278.079C171.407 274.561 172.118 272.309 175.936 271.345C177.282 271.003 178.616 270.625 179.948 270.238C180.594 270.051 180.959 270.438 181.283 270.855C181.71 271.401 181.168 271.702 180.883 272.003C178.344 274.699 175.778 277.371 173.24 280.069C172.216 281.158 171.671 280.693 171.368 279.527C171.239 279.022 171.271 278.475 171.24 278.079Z" fill="#C4BBB3"/>
<path fill-rule="evenodd" clip-rule="evenodd" d="M267.401 194.52C267.274 193.583 266 192.693 267.117 191.791C267.462 191.511 268.713 191.644 268.768 191.825C269.121 192.985 267.993 193.592 267.401 194.52Z" fill="#13487A"/>
<path fill-rule="evenodd" clip-rule="evenodd" d="M165.583 309.87C168.356 309.848 170.403 311.811 170.417 314.508C170.432 317.11 168.257 319.19 165.544 319.168C163.052 319.15 161.013 317.154 160.957 314.674C160.893 311.898 162.828 309.891 165.583 309.87Z" fill="#2C1A11"/>
<path fill-rule="evenodd" clip-rule="evenodd" d="M181.281 151.06C184.135 151.089 186.742 153.257 187.226 155.967C187.327 156.521 187.531 157.005 186.663 157.045C182.665 157.231 179.353 159.149 176.109 161.24C175.809 161.433 175.537 161.913 175.099 161.616C174.723 161.364 174.809 160.903 174.879 160.52C175.19 158.832 174.919 157.081 175.515 155.421C176.474 152.748 178.701 151.033 181.281 151.06Z" fill="#2B1A11"/>
</g>
</g>
<defs>
<clipPath id="clip0_1_2">
<rect width="480" height="480" fill="white" transform="translate(10 10)"/>
</clipPath>
</defs>
</svg>
