<svg width="500" height="500" viewBox="0 0 500 500" fill="none" xmlns="http://www.w3.org/2000/svg">
<g clip-path="url(#clip0_1_120)">
<rect width="500" height="500" fill="white"/>
<path d="M157.173 114.545H187.926V209.006C187.926 219.612 185.393 228.892 180.327 236.847C175.308 244.801 168.277 251.004 159.233 255.455C150.189 259.858 139.654 262.06 127.628 262.06C115.554 262.06 104.995 259.858 95.9517 255.455C86.9081 251.004 79.8769 244.801 74.858 236.847C69.839 228.892 67.3295 219.612 67.3295 209.006V114.545H98.0824V206.378C98.0824 211.918 99.2898 216.842 101.705 221.151C104.167 225.459 107.623 228.845 112.074 231.307C116.525 233.769 121.709 235 127.628 235C133.594 235 138.778 233.769 143.182 231.307C147.633 228.845 151.065 225.459 153.48 221.151C155.942 216.842 157.173 211.918 157.173 206.378V114.545ZM213.228 260V114.545H270.614C281.599 114.545 290.974 116.51 298.739 120.44C306.552 124.323 312.494 129.839 316.566 136.989C320.685 144.091 322.745 152.448 322.745 162.06C322.745 171.719 320.662 180.028 316.495 186.989C312.328 193.902 306.291 199.205 298.384 202.898C290.524 206.591 281.007 208.438 269.833 208.438H231.41V183.722H264.862C270.733 183.722 275.61 182.917 279.492 181.307C283.375 179.697 286.263 177.282 288.157 174.062C290.098 170.843 291.069 166.842 291.069 162.06C291.069 157.23 290.098 153.158 288.157 149.844C286.263 146.529 283.351 144.02 279.421 142.315C275.539 140.563 270.638 139.688 264.719 139.688H243.981V260H213.228ZM291.779 193.807L327.93 260H293.981L258.612 193.807H291.779ZM344.478 260V114.545H375.231V234.645H437.589V260H344.478Z" fill="#05477E"/>
<path d="M90.7826 288.636H98.4708V312.251C98.4708 314.903 97.8375 317.223 96.5709 319.212C95.3162 321.2 93.5584 322.751 91.2975 323.864C89.0366 324.964 86.4028 325.515 83.3962 325.515C80.3778 325.515 77.7381 324.964 75.4772 323.864C73.2163 322.751 71.4585 321.2 70.2037 319.212C68.949 317.223 68.3216 314.903 68.3216 312.251V288.636H76.0099V311.594C76.0099 312.979 76.3117 314.21 76.9154 315.288C77.5309 316.365 78.395 317.211 79.5077 317.827C80.6204 318.442 81.9166 318.75 83.3962 318.75C84.8877 318.75 86.1839 318.442 87.2847 317.827C88.3974 317.211 89.2556 316.365 89.8593 315.288C90.4748 314.21 90.7826 312.979 90.7826 311.594V288.636ZM112.218 309.233V325H104.654V297.727H111.863V302.539H112.183C112.786 300.953 113.798 299.698 115.219 298.775C116.639 297.84 118.362 297.372 120.386 297.372C122.28 297.372 123.931 297.786 125.34 298.615C126.748 299.444 127.843 300.627 128.624 302.166C129.406 303.693 129.796 305.516 129.796 307.635V325H122.232V308.984C122.244 307.315 121.818 306.013 120.954 305.078C120.09 304.131 118.9 303.658 117.385 303.658C116.367 303.658 115.467 303.877 114.686 304.315C113.917 304.753 113.313 305.392 112.875 306.232C112.449 307.061 112.23 308.061 112.218 309.233ZM145.807 325.444C143.736 325.444 141.86 324.911 140.179 323.846C138.51 322.769 137.184 321.188 136.202 319.105C135.231 317.01 134.746 314.441 134.746 311.399C134.746 308.274 135.249 305.676 136.255 303.604C137.261 301.521 138.599 299.964 140.268 298.935C141.949 297.893 143.789 297.372 145.79 297.372C147.317 297.372 148.589 297.633 149.607 298.153C150.637 298.662 151.466 299.302 152.093 300.071C152.732 300.829 153.217 301.574 153.549 302.308H153.78V288.636H161.326V325H153.869V320.632H153.549C153.194 321.39 152.691 322.141 152.04 322.887C151.4 323.621 150.566 324.231 149.536 324.716C148.518 325.201 147.275 325.444 145.807 325.444ZM148.204 319.425C149.424 319.425 150.454 319.093 151.294 318.43C152.146 317.756 152.797 316.815 153.247 315.607C153.709 314.4 153.94 312.985 153.94 311.364C153.94 309.742 153.715 308.333 153.265 307.138C152.815 305.942 152.164 305.019 151.312 304.368C150.459 303.717 149.424 303.391 148.204 303.391C146.962 303.391 145.914 303.729 145.062 304.403C144.209 305.078 143.564 306.013 143.126 307.209C142.688 308.404 142.469 309.789 142.469 311.364C142.469 312.95 142.688 314.353 143.126 315.572C143.576 316.779 144.221 317.726 145.062 318.413C145.914 319.087 146.962 319.425 148.204 319.425ZM179.974 325.533C177.168 325.533 174.754 324.964 172.729 323.828C170.717 322.68 169.167 321.058 168.078 318.963C166.988 316.856 166.444 314.364 166.444 311.488C166.444 308.683 166.988 306.22 168.078 304.102C169.167 301.983 170.699 300.331 172.676 299.148C174.665 297.964 176.997 297.372 179.672 297.372C181.471 297.372 183.146 297.662 184.697 298.242C186.259 298.81 187.621 299.669 188.781 300.817C189.953 301.965 190.864 303.409 191.515 305.149C192.166 306.877 192.492 308.902 192.492 311.222V313.299H169.462V308.612H185.372C185.372 307.522 185.135 306.558 184.661 305.717C184.188 304.877 183.531 304.22 182.69 303.746C181.862 303.261 180.897 303.018 179.796 303.018C178.648 303.018 177.63 303.285 176.742 303.817C175.866 304.338 175.18 305.043 174.683 305.93C174.185 306.806 173.931 307.783 173.919 308.86V313.317C173.919 314.666 174.168 315.832 174.665 316.815C175.174 317.797 175.89 318.555 176.813 319.087C177.737 319.62 178.832 319.886 180.098 319.886C180.939 319.886 181.708 319.768 182.406 319.531C183.105 319.295 183.703 318.939 184.2 318.466C184.697 317.992 185.076 317.412 185.336 316.726L192.332 317.188C191.977 318.868 191.249 320.336 190.148 321.591C189.059 322.834 187.65 323.804 185.922 324.503C184.206 325.189 182.223 325.533 179.974 325.533ZM197.428 325V297.727H204.761V302.486H205.045C205.542 300.793 206.377 299.515 207.548 298.651C208.72 297.775 210.07 297.337 211.597 297.337C211.975 297.337 212.384 297.36 212.822 297.408C213.26 297.455 213.645 297.52 213.976 297.603V304.315C213.621 304.208 213.13 304.113 212.502 304.031C211.875 303.948 211.301 303.906 210.78 303.906C209.667 303.906 208.673 304.149 207.797 304.634C206.933 305.108 206.246 305.771 205.737 306.623C205.24 307.475 204.992 308.458 204.992 309.57V325H197.428ZM228.904 335.795C226.454 335.795 224.353 335.458 222.601 334.783C220.861 334.121 219.476 333.215 218.446 332.067C217.416 330.919 216.747 329.628 216.44 328.196L223.435 327.255C223.648 327.799 223.986 328.308 224.447 328.782C224.909 329.255 225.519 329.634 226.276 329.918C227.046 330.214 227.981 330.362 229.082 330.362C230.727 330.362 232.082 329.96 233.148 329.155C234.225 328.362 234.763 327.03 234.763 325.16V320.17H234.444C234.112 320.928 233.615 321.644 232.952 322.319C232.289 322.994 231.437 323.544 230.396 323.97C229.354 324.396 228.111 324.609 226.667 324.609C224.619 324.609 222.755 324.136 221.074 323.189C219.405 322.23 218.073 320.768 217.079 318.803C216.096 316.826 215.605 314.329 215.605 311.31C215.605 308.221 216.108 305.64 217.114 303.569C218.12 301.497 219.458 299.947 221.127 298.917C222.808 297.887 224.649 297.372 226.649 297.372C228.176 297.372 229.454 297.633 230.484 298.153C231.514 298.662 232.343 299.302 232.97 300.071C233.609 300.829 234.101 301.574 234.444 302.308H234.728V297.727H242.239V325.266C242.239 327.586 241.67 329.528 240.534 331.09C239.398 332.653 237.823 333.825 235.811 334.606C233.811 335.399 231.508 335.795 228.904 335.795ZM229.064 318.928C230.283 318.928 231.313 318.626 232.153 318.022C233.006 317.406 233.657 316.531 234.106 315.394C234.568 314.246 234.799 312.873 234.799 311.275C234.799 309.677 234.574 308.292 234.124 307.12C233.674 305.936 233.023 305.019 232.171 304.368C231.319 303.717 230.283 303.391 229.064 303.391C227.821 303.391 226.773 303.729 225.921 304.403C225.069 305.066 224.424 305.99 223.986 307.173C223.548 308.357 223.329 309.724 223.329 311.275C223.329 312.849 223.548 314.21 223.986 315.359C224.436 316.495 225.081 317.377 225.921 318.004C226.773 318.62 227.821 318.928 229.064 318.928ZM248.258 325V297.727H255.591V302.486H255.875C256.372 300.793 257.207 299.515 258.378 298.651C259.55 297.775 260.9 297.337 262.427 297.337C262.806 297.337 263.214 297.36 263.652 297.408C264.09 297.455 264.475 297.52 264.806 297.603V304.315C264.451 304.208 263.96 304.113 263.332 304.031C262.705 303.948 262.131 303.906 261.61 303.906C260.497 303.906 259.503 304.149 258.627 304.634C257.763 305.108 257.076 305.771 256.567 306.623C256.07 307.475 255.822 308.458 255.822 309.57V325H248.258ZM275.712 325.515C273.972 325.515 272.422 325.213 271.06 324.609C269.699 323.994 268.622 323.088 267.829 321.893C267.048 320.685 266.657 319.182 266.657 317.383C266.657 315.868 266.935 314.595 267.492 313.565C268.048 312.536 268.805 311.707 269.764 311.08C270.723 310.452 271.812 309.979 273.031 309.659C274.262 309.339 275.553 309.115 276.902 308.984C278.488 308.819 279.767 308.665 280.737 308.523C281.708 308.369 282.412 308.144 282.85 307.848C283.288 307.552 283.507 307.114 283.507 306.534V306.428C283.507 305.303 283.152 304.433 282.442 303.817C281.743 303.202 280.749 302.894 279.459 302.894C278.098 302.894 277.015 303.196 276.21 303.8C275.405 304.392 274.872 305.137 274.612 306.037L267.616 305.469C267.971 303.812 268.669 302.379 269.711 301.172C270.753 299.953 272.096 299.018 273.742 298.366C275.399 297.704 277.316 297.372 279.494 297.372C281.01 297.372 282.46 297.55 283.845 297.905C285.241 298.26 286.478 298.81 287.555 299.556C288.645 300.302 289.503 301.261 290.13 302.433C290.757 303.593 291.071 304.983 291.071 306.605V325H283.898V321.218H283.685C283.247 322.07 282.661 322.822 281.927 323.473C281.193 324.112 280.311 324.615 279.281 324.982C278.252 325.337 277.062 325.515 275.712 325.515ZM277.879 320.295C278.991 320.295 279.974 320.076 280.826 319.638C281.678 319.188 282.347 318.584 282.832 317.827C283.318 317.069 283.56 316.211 283.56 315.252V312.358C283.324 312.512 282.998 312.654 282.584 312.784C282.181 312.902 281.726 313.015 281.217 313.121C280.708 313.216 280.199 313.305 279.69 313.388C279.181 313.459 278.719 313.524 278.305 313.583C277.417 313.713 276.642 313.92 275.979 314.205C275.316 314.489 274.801 314.873 274.434 315.359C274.067 315.832 273.884 316.424 273.884 317.134C273.884 318.164 274.256 318.951 275.002 319.496C275.76 320.028 276.719 320.295 277.879 320.295ZM306.989 325.444C304.918 325.444 303.041 324.911 301.361 323.846C299.691 322.769 298.366 321.188 297.383 319.105C296.413 317.01 295.927 314.441 295.927 311.399C295.927 308.274 296.43 305.676 297.437 303.604C298.443 301.521 299.78 299.964 301.449 298.935C303.13 297.893 304.971 297.372 306.971 297.372C308.498 297.372 309.771 297.633 310.789 298.153C311.819 298.662 312.647 299.302 313.275 300.071C313.914 300.829 314.399 301.574 314.731 302.308H314.961V288.636H322.508V325H315.05V320.632H314.731C314.375 321.39 313.872 322.141 313.221 322.887C312.582 323.621 311.748 324.231 310.718 324.716C309.7 325.201 308.457 325.444 306.989 325.444ZM309.386 319.425C310.605 319.425 311.635 319.093 312.476 318.43C313.328 317.756 313.979 316.815 314.429 315.607C314.89 314.4 315.121 312.985 315.121 311.364C315.121 309.742 314.896 308.333 314.446 307.138C313.997 305.942 313.346 305.019 312.493 304.368C311.641 303.717 310.605 303.391 309.386 303.391C308.143 303.391 307.096 303.729 306.243 304.403C305.391 305.078 304.746 306.013 304.308 307.209C303.87 308.404 303.651 309.789 303.651 311.364C303.651 312.95 303.87 314.353 304.308 315.572C304.758 316.779 305.403 317.726 306.243 318.413C307.096 319.087 308.143 319.425 309.386 319.425ZM346.216 313.388V297.727H353.78V325H346.518V320.046H346.234C345.618 321.644 344.594 322.929 343.162 323.899C341.741 324.87 340.007 325.355 337.959 325.355C336.137 325.355 334.533 324.941 333.148 324.112C331.763 323.284 330.68 322.106 329.898 320.579C329.129 319.052 328.738 317.223 328.726 315.092V297.727H336.29V313.743C336.302 315.353 336.734 316.625 337.587 317.56C338.439 318.496 339.581 318.963 341.013 318.963C341.925 318.963 342.777 318.756 343.57 318.342C344.363 317.915 345.003 317.288 345.488 316.46C345.985 315.631 346.228 314.607 346.216 313.388ZM367.607 325.515C365.867 325.515 364.316 325.213 362.955 324.609C361.594 323.994 360.517 323.088 359.723 321.893C358.942 320.685 358.552 319.182 358.552 317.383C358.552 315.868 358.83 314.595 359.386 313.565C359.942 312.536 360.7 311.707 361.659 311.08C362.618 310.452 363.707 309.979 364.926 309.659C366.157 309.339 367.447 309.115 368.797 308.984C370.383 308.819 371.661 308.665 372.632 308.523C373.602 308.369 374.307 308.144 374.745 307.848C375.183 307.552 375.402 307.114 375.402 306.534V306.428C375.402 305.303 375.047 304.433 374.336 303.817C373.638 303.202 372.644 302.894 371.353 302.894C369.992 302.894 368.909 303.196 368.104 303.8C367.299 304.392 366.767 305.137 366.506 306.037L359.51 305.469C359.866 303.812 360.564 302.379 361.606 301.172C362.647 299.953 363.991 299.018 365.636 298.366C367.293 297.704 369.211 297.372 371.389 297.372C372.904 297.372 374.354 297.55 375.739 297.905C377.136 298.26 378.373 298.81 379.45 299.556C380.539 300.302 381.397 301.261 382.025 302.433C382.652 303.593 382.966 304.983 382.966 306.605V325H375.792V321.218H375.579C375.141 322.07 374.555 322.822 373.821 323.473C373.088 324.112 372.206 324.615 371.176 324.982C370.146 325.337 368.956 325.515 367.607 325.515ZM369.773 320.295C370.886 320.295 371.868 320.076 372.721 319.638C373.573 319.188 374.242 318.584 374.727 317.827C375.212 317.069 375.455 316.211 375.455 315.252V312.358C375.218 312.512 374.893 312.654 374.478 312.784C374.076 312.902 373.62 313.015 373.111 313.121C372.602 313.216 372.093 313.305 371.584 313.388C371.075 313.459 370.614 313.524 370.199 313.583C369.312 313.713 368.536 313.92 367.873 314.205C367.21 314.489 366.696 314.873 366.329 315.359C365.962 315.832 365.778 316.424 365.778 317.134C365.778 318.164 366.151 318.951 366.897 319.496C367.654 320.028 368.613 320.295 369.773 320.295ZM403.34 297.727V303.409H386.916V297.727H403.34ZM390.645 291.193H398.209V316.619C398.209 317.318 398.315 317.862 398.528 318.253C398.742 318.632 399.037 318.898 399.416 319.052C399.807 319.206 400.257 319.283 400.766 319.283C401.121 319.283 401.476 319.253 401.831 319.194C402.186 319.123 402.458 319.07 402.648 319.034L403.837 324.663C403.459 324.781 402.926 324.917 402.239 325.071C401.553 325.237 400.718 325.337 399.736 325.373C397.913 325.444 396.315 325.201 394.942 324.645C393.581 324.089 392.521 323.224 391.764 322.053C391.006 320.881 390.633 319.401 390.645 317.614V291.193ZM420.403 325.533C417.598 325.533 415.183 324.964 413.159 323.828C411.147 322.68 409.596 321.058 408.507 318.963C407.418 316.856 406.874 314.364 406.874 311.488C406.874 308.683 407.418 306.22 408.507 304.102C409.596 301.983 411.129 300.331 413.106 299.148C415.095 297.964 417.426 297.372 420.102 297.372C421.901 297.372 423.576 297.662 425.127 298.242C426.689 298.81 428.05 299.669 429.21 300.817C430.382 301.965 431.294 303.409 431.945 305.149C432.596 306.877 432.921 308.902 432.921 311.222V313.299H409.892V308.612H425.801C425.801 307.522 425.564 306.558 425.091 305.717C424.618 304.877 423.961 304.22 423.12 303.746C422.292 303.261 421.327 303.018 420.226 303.018C419.078 303.018 418.06 303.285 417.172 303.817C416.296 304.338 415.609 305.043 415.112 305.93C414.615 306.806 414.361 307.783 414.349 308.86V313.317C414.349 314.666 414.597 315.832 415.095 316.815C415.604 317.797 416.32 318.555 417.243 319.087C418.166 319.62 419.261 319.886 420.528 319.886C421.368 319.886 422.138 319.768 422.836 319.531C423.534 319.295 424.132 318.939 424.629 318.466C425.127 317.992 425.505 317.412 425.766 316.726L432.761 317.188C432.406 318.868 431.678 320.336 430.578 321.591C429.488 322.834 428.08 323.804 426.352 324.503C424.635 325.189 422.653 325.533 420.403 325.533ZM88.3168 386V349.636H102.663C105.41 349.636 107.753 350.128 109.695 351.11C111.648 352.081 113.133 353.46 114.151 355.247C115.181 357.023 115.696 359.112 115.696 361.515C115.696 363.93 115.175 366.007 114.134 367.747C113.092 369.475 111.583 370.801 109.606 371.724C107.641 372.648 105.262 373.109 102.468 373.109H92.8622V366.93H101.225C102.693 366.93 103.912 366.729 104.883 366.327C105.853 365.924 106.576 365.321 107.049 364.516C107.534 363.711 107.777 362.71 107.777 361.515C107.777 360.308 107.534 359.29 107.049 358.461C106.576 357.632 105.848 357.005 104.865 356.579C103.894 356.141 102.669 355.922 101.19 355.922H96.005V386H88.3168ZM107.955 369.452L116.992 386H108.505L99.6626 369.452H107.955ZM132.977 386.533C130.171 386.533 127.757 385.964 125.732 384.828C123.72 383.68 122.169 382.058 121.08 379.963C119.991 377.856 119.447 375.364 119.447 372.488C119.447 369.683 119.991 367.22 121.08 365.102C122.169 362.983 123.702 361.331 125.679 360.148C127.668 358.964 130 358.372 132.675 358.372C134.474 358.372 136.149 358.662 137.7 359.242C139.262 359.81 140.624 360.669 141.784 361.817C142.955 362.965 143.867 364.409 144.518 366.149C145.169 367.877 145.494 369.902 145.494 372.222V374.299H122.465V369.612H138.374C138.374 368.522 138.138 367.558 137.664 366.717C137.191 365.877 136.534 365.22 135.693 364.746C134.865 364.261 133.9 364.018 132.799 364.018C131.651 364.018 130.633 364.285 129.745 364.817C128.869 365.338 128.183 366.043 127.686 366.93C127.188 367.806 126.934 368.783 126.922 369.86V374.317C126.922 375.666 127.171 376.832 127.668 377.815C128.177 378.797 128.893 379.555 129.816 380.087C130.74 380.62 131.834 380.886 133.101 380.886C133.941 380.886 134.711 380.768 135.409 380.531C136.108 380.295 136.705 379.939 137.203 379.466C137.7 378.992 138.079 378.412 138.339 377.726L145.335 378.188C144.98 379.868 144.252 381.336 143.151 382.591C142.062 383.834 140.653 384.804 138.925 385.503C137.209 386.189 135.226 386.533 132.977 386.533ZM173.122 366.504L166.198 366.93C166.079 366.339 165.825 365.806 165.434 365.332C165.044 364.847 164.529 364.462 163.889 364.178C163.262 363.882 162.51 363.734 161.634 363.734C160.463 363.734 159.474 363.983 158.669 364.48C157.864 364.965 157.462 365.616 157.462 366.433C157.462 367.084 157.722 367.635 158.243 368.085C158.764 368.534 159.658 368.895 160.924 369.168L165.86 370.162C168.512 370.706 170.489 371.582 171.791 372.79C173.093 373.997 173.744 375.583 173.744 377.548C173.744 379.336 173.217 380.904 172.164 382.254C171.122 383.603 169.69 384.656 167.867 385.414C166.056 386.16 163.966 386.533 161.599 386.533C157.989 386.533 155.112 385.781 152.97 384.278C150.839 382.763 149.59 380.703 149.223 378.099L156.663 377.708C156.888 378.809 157.432 379.649 158.296 380.229C159.16 380.798 160.267 381.082 161.617 381.082C162.942 381.082 164.008 380.827 164.813 380.318C165.629 379.797 166.044 379.129 166.056 378.312C166.044 377.625 165.754 377.063 165.186 376.625C164.617 376.175 163.741 375.832 162.558 375.595L157.835 374.654C155.171 374.121 153.189 373.198 151.887 371.884C150.596 370.57 149.951 368.895 149.951 366.859C149.951 365.107 150.425 363.598 151.372 362.332C152.33 361.065 153.674 360.089 155.402 359.402C157.142 358.715 159.178 358.372 161.51 358.372C164.955 358.372 167.665 359.1 169.642 360.556C171.631 362.012 172.791 363.995 173.122 366.504ZM190.936 386.533C188.13 386.533 185.716 385.964 183.691 384.828C181.679 383.68 180.128 382.058 179.039 379.963C177.95 377.856 177.406 375.364 177.406 372.488C177.406 369.683 177.95 367.22 179.039 365.102C180.128 362.983 181.661 361.331 183.638 360.148C185.627 358.964 187.959 358.372 190.634 358.372C192.433 358.372 194.108 358.662 195.659 359.242C197.221 359.81 198.583 360.669 199.743 361.817C200.914 362.965 201.826 364.409 202.477 366.149C203.128 367.877 203.453 369.902 203.453 372.222V374.299H180.424V369.612H196.333C196.333 368.522 196.097 367.558 195.623 366.717C195.15 365.877 194.493 365.22 193.652 364.746C192.824 364.261 191.859 364.018 190.758 364.018C189.61 364.018 188.592 364.285 187.704 364.817C186.828 365.338 186.142 366.043 185.645 366.93C185.147 367.806 184.893 368.783 184.881 369.86V374.317C184.881 375.666 185.13 376.832 185.627 377.815C186.136 378.797 186.852 379.555 187.775 380.087C188.699 380.62 189.793 380.886 191.06 380.886C191.9 380.886 192.67 380.768 193.368 380.531C194.067 380.295 194.664 379.939 195.162 379.466C195.659 378.992 196.038 378.412 196.298 377.726L203.294 378.188C202.939 379.868 202.211 381.336 201.11 382.591C200.021 383.834 198.612 384.804 196.884 385.503C195.167 386.189 193.185 386.533 190.936 386.533ZM216.167 386.515C214.426 386.515 212.876 386.213 211.515 385.609C210.153 384.994 209.076 384.088 208.283 382.893C207.502 381.685 207.111 380.182 207.111 378.383C207.111 376.868 207.389 375.595 207.946 374.565C208.502 373.536 209.26 372.707 210.218 372.08C211.177 371.452 212.266 370.979 213.485 370.659C214.717 370.339 216.007 370.115 217.356 369.984C218.942 369.819 220.221 369.665 221.191 369.523C222.162 369.369 222.866 369.144 223.304 368.848C223.742 368.552 223.961 368.114 223.961 367.534V367.428C223.961 366.303 223.606 365.433 222.896 364.817C222.198 364.202 221.203 363.894 219.913 363.894C218.552 363.894 217.469 364.196 216.664 364.8C215.859 365.392 215.326 366.137 215.066 367.037L208.07 366.469C208.425 364.812 209.123 363.379 210.165 362.172C211.207 360.953 212.55 360.018 214.196 359.366C215.853 358.704 217.77 358.372 219.949 358.372C221.464 358.372 222.914 358.55 224.299 358.905C225.695 359.26 226.932 359.81 228.01 360.556C229.099 361.302 229.957 362.261 230.584 363.433C231.212 364.593 231.525 365.983 231.525 367.605V386H224.352V382.218H224.139C223.701 383.07 223.115 383.822 222.381 384.473C221.647 385.112 220.765 385.615 219.735 385.982C218.706 386.337 217.516 386.515 216.167 386.515ZM218.333 381.295C219.445 381.295 220.428 381.076 221.28 380.638C222.132 380.188 222.801 379.584 223.287 378.827C223.772 378.069 224.015 377.211 224.015 376.252V373.358C223.778 373.512 223.452 373.654 223.038 373.784C222.636 373.902 222.18 374.015 221.671 374.121C221.162 374.216 220.653 374.305 220.144 374.388C219.635 374.459 219.173 374.524 218.759 374.583C217.871 374.713 217.096 374.92 216.433 375.205C215.77 375.489 215.255 375.873 214.888 376.359C214.521 376.832 214.338 377.424 214.338 378.134C214.338 379.164 214.711 379.951 215.456 380.496C216.214 381.028 217.173 381.295 218.333 381.295ZM237.393 386V358.727H244.727V363.486H245.011C245.508 361.793 246.342 360.515 247.514 359.651C248.686 358.775 250.036 358.337 251.562 358.337C251.941 358.337 252.35 358.36 252.788 358.408C253.226 358.455 253.61 358.52 253.942 358.603V365.315C253.587 365.208 253.095 365.113 252.468 365.031C251.841 364.948 251.267 364.906 250.746 364.906C249.633 364.906 248.639 365.149 247.763 365.634C246.899 366.108 246.212 366.771 245.703 367.623C245.206 368.475 244.957 369.458 244.957 370.57V386H237.393ZM268.905 386.533C266.112 386.533 263.709 385.941 261.697 384.757C259.696 383.562 258.157 381.904 257.08 379.786C256.015 377.667 255.482 375.228 255.482 372.47C255.482 369.677 256.021 367.226 257.098 365.119C258.187 363 259.732 361.349 261.732 360.165C263.733 358.97 266.112 358.372 268.87 358.372C271.249 358.372 273.332 358.804 275.12 359.668C276.907 360.532 278.322 361.746 279.363 363.308C280.405 364.871 280.979 366.705 281.086 368.812H273.948C273.747 367.451 273.214 366.356 272.35 365.528C271.498 364.687 270.379 364.267 268.994 364.267C267.822 364.267 266.798 364.587 265.922 365.226C265.058 365.853 264.384 366.771 263.898 367.978C263.413 369.185 263.17 370.647 263.17 372.364C263.17 374.104 263.407 375.583 263.881 376.803C264.366 378.022 265.046 378.951 265.922 379.59C266.798 380.229 267.822 380.549 268.994 380.549C269.858 380.549 270.634 380.371 271.32 380.016C272.019 379.661 272.593 379.146 273.042 378.472C273.504 377.785 273.806 376.962 273.948 376.004H281.086C280.967 378.087 280.399 379.922 279.381 381.508C278.375 383.082 276.984 384.313 275.209 385.201C273.433 386.089 271.332 386.533 268.905 386.533ZM293.493 370.233V386H285.929V349.636H293.279V363.539H293.599C294.215 361.929 295.209 360.669 296.582 359.757C297.955 358.834 299.677 358.372 301.749 358.372C303.643 358.372 305.294 358.786 306.703 359.615C308.123 360.432 309.224 361.61 310.005 363.148C310.798 364.675 311.189 366.504 311.177 368.635V386H303.613V369.984C303.625 368.304 303.199 366.996 302.335 366.06C301.483 365.125 300.287 364.658 298.748 364.658C297.718 364.658 296.807 364.877 296.014 365.315C295.233 365.753 294.617 366.392 294.167 367.232C293.729 368.061 293.504 369.061 293.493 370.233ZM328.844 386V349.636H336.532V379.661H352.122V386H328.844ZM364.848 386.515C363.108 386.515 361.557 386.213 360.196 385.609C358.835 384.994 357.758 384.088 356.965 382.893C356.183 381.685 355.793 380.182 355.793 378.383C355.793 376.868 356.071 375.595 356.627 374.565C357.184 373.536 357.941 372.707 358.9 372.08C359.859 371.452 360.948 370.979 362.167 370.659C363.398 370.339 364.688 370.115 366.038 369.984C367.624 369.819 368.902 369.665 369.873 369.523C370.844 369.369 371.548 369.144 371.986 368.848C372.424 368.552 372.643 368.114 372.643 367.534V367.428C372.643 366.303 372.288 365.433 371.578 364.817C370.879 364.202 369.885 363.894 368.595 363.894C367.233 363.894 366.15 364.196 365.345 364.8C364.54 365.392 364.008 366.137 363.747 367.037L356.752 366.469C357.107 364.812 357.805 363.379 358.847 362.172C359.888 360.953 361.232 360.018 362.877 359.366C364.535 358.704 366.452 358.372 368.63 358.372C370.145 358.372 371.595 358.55 372.98 358.905C374.377 359.26 375.614 359.81 376.691 360.556C377.78 361.302 378.638 362.261 379.266 363.433C379.893 364.593 380.207 365.983 380.207 367.605V386H373.034V382.218H372.82C372.383 383.07 371.797 383.822 371.063 384.473C370.329 385.112 369.447 385.615 368.417 385.982C367.387 386.337 366.198 386.515 364.848 386.515ZM367.014 381.295C368.127 381.295 369.11 381.076 369.962 380.638C370.814 380.188 371.483 379.584 371.968 378.827C372.454 378.069 372.696 377.211 372.696 376.252V373.358C372.459 373.512 372.134 373.654 371.72 373.784C371.317 373.902 370.861 374.015 370.352 374.121C369.843 374.216 369.334 374.305 368.825 374.388C368.316 374.459 367.855 374.524 367.441 374.583C366.553 374.713 365.777 374.92 365.115 375.205C364.452 375.489 363.937 375.873 363.57 376.359C363.203 376.832 363.019 377.424 363.019 378.134C363.019 379.164 363.392 379.951 364.138 380.496C364.896 381.028 365.854 381.295 367.014 381.295ZM386.217 386V349.636H393.781V363.308H394.012C394.343 362.574 394.823 361.829 395.45 361.071C396.089 360.302 396.918 359.662 397.936 359.153C398.966 358.633 400.244 358.372 401.771 358.372C403.76 358.372 405.595 358.893 407.275 359.935C408.956 360.964 410.3 362.521 411.306 364.604C412.312 366.676 412.815 369.274 412.815 372.399C412.815 375.441 412.324 378.01 411.341 380.105C410.371 382.188 409.045 383.769 407.364 384.846C405.695 385.911 403.825 386.444 401.753 386.444C400.286 386.444 399.037 386.201 398.007 385.716C396.989 385.231 396.154 384.621 395.503 383.887C394.852 383.141 394.355 382.39 394.012 381.632H393.675V386H386.217ZM393.621 372.364C393.621 373.985 393.846 375.4 394.296 376.607C394.746 377.815 395.397 378.756 396.249 379.43C397.101 380.093 398.137 380.425 399.356 380.425C400.587 380.425 401.629 380.087 402.481 379.413C403.334 378.726 403.979 377.779 404.417 376.572C404.867 375.353 405.091 373.95 405.091 372.364C405.091 370.789 404.872 369.404 404.434 368.209C403.997 367.013 403.351 366.078 402.499 365.403C401.647 364.729 400.599 364.391 399.356 364.391C398.125 364.391 397.084 364.717 396.231 365.368C395.391 366.019 394.746 366.942 394.296 368.138C393.846 369.333 393.621 370.742 393.621 372.364Z" fill="#05477E"/>
</g>
<defs>
<clipPath id="clip0_1_120">
<rect width="500" height="500" fill="white"/>
</clipPath>
</defs>
</svg>
